<svg xmlns="http://www.w3.org/2000/svg" viewBox="8171 357 59 57">
  <defs>
    <style>
      .cls-1 {
        fill: #1d191b;
      }
    </style>
  </defs>
  <g id="Artwork5" transform="translate(8171 357)">
    <path id="Path_264" class="cls-1" d="M.432,7.88a1.007,1.007,0,0,0,1.353-.247A14.058,14.058,0,0,1,18.83,3.04a12.8,12.8,0,0,1,7.461,15.286.923.923,0,0,0,.681,1.14,1,1,0,0,0,.26.033.97.97,0,0,0,.94-.682A14.628,14.628,0,0,0,19.644,1.353,16.067,16.067,0,0,0,.168,6.6a.9.9,0,0,0,.26,1.288Z" transform="translate(21.179)"/>
    <path id="Path_265" class="cls-1" d="M1.11,15a.915.915,0,0,0,.17-.016,1,1,0,0,0,.751-1.165A10.2,10.2,0,0,1,6.985,3.1a8.967,8.967,0,0,1,11.058,2,.9.9,0,0,0,1.329.041,1.049,1.049,0,0,0,.038-1.416A10.775,10.775,0,0,0,7.078.858,12.016,12.016,0,0,0,0,11.993a12.9,12.9,0,0,0,.186,2.189A.958.958,0,0,0,1.108,15Z" transform="translate(3.026 7.5)"/>
    <path id="Path_266" class="cls-1" d="M20.217,11.374a.963.963,0,0,0,.889-.585A.936.936,0,0,0,20.9,9.757L11.267.283A.915.915,0,0,0,10.633.01c-.017,0-.032-.01-.05-.01h0a.978.978,0,0,0-.37.073.947.947,0,0,0-.2.126A.863.863,0,0,0,9.9.277L.27,9.751a.936.936,0,0,0,.012,1.328.974.974,0,0,0,1.35.011L9.621,3.231V35.053a.963.963,0,0,0,1.926,0V3.241L19.533,11.1a.969.969,0,0,0,.681.278Z" transform="translate(16.641 21)"/>
    <path id="Path_267" class="cls-1" d="M20.689.187a1.019,1.019,0,0,0-1-.1.957.957,0,0,0-.578.79.943.943,0,0,0,.434.872,9.366,9.366,0,0,1,3.729,10.686,9.861,9.861,0,0,1-9.43,6.659H.989A.955.955,0,1,0,.989,21H13.847a11.833,11.833,0,0,0,11.315-7.99A11.239,11.239,0,0,0,20.689.187Z" transform="translate(33.282 16.5)"/>
    <path id="Path_268" class="cls-1" d="M21.747,13.125H7.564a5.625,5.625,0,1,1,0-11.25A.938.938,0,1,0,7.564,0a7.5,7.5,0,1,0,0,15H21.747a.938.938,0,1,0,0-1.875Z" transform="translate(0 22.5)"/>
  </g>
</svg>
