<svg xmlns="http://www.w3.org/2000/svg" viewBox="8122 74 60 69">
  <defs>
    <style>
      .cls-1 {
        fill: #cfd3ff;
      }
    </style>
  </defs>
  <g id="play-icon" transform="translate(8122 74)">
    <path id="Shape" class="cls-1" d="M54.208,24.032a2.163,2.163,0,0,0-2.284,3.674,8.02,8.02,0,0,1,0,13.589l-35.4,22.139A7.983,7.983,0,0,1,4.316,56.639V12.361A7.983,7.983,0,0,1,16.523,5.566L37.131,18.454a2.163,2.163,0,0,0,2.284-3.674L18.807,1.893A12.117,12.117,0,0,0,6.331,1.574,12.189,12.189,0,0,0,0,12.361V56.639A12.189,12.189,0,0,0,6.332,67.426a12.117,12.117,0,0,0,12.476-.319l35.4-22.139a12.356,12.356,0,0,0,0-20.936Z"/>
  </g>
</svg>
