<svg xmlns="http://www.w3.org/2000/svg" viewBox="7477 158 26 30.334">
  <g id="apple" transform="translate(7477 158)">
    <path id="Shape" d="M1.151,8.667c-.052,0-.1,0-.154,0A.964.964,0,0,1,.08,7.892,6.561,6.561,0,0,1,1.7,2.667,7.666,7.666,0,0,1,6.719,0c.028,0,.057,0,.085,0a.951.951,0,0,1,.934.807,7.018,7.018,0,0,1-1.57,5.281A6.664,6.664,0,0,1,1.151,8.667ZM5.858,2.083A6.083,6.083,0,0,0,3.2,3.851,5.417,5.417,0,0,0,1.936,6.7a4.952,4.952,0,0,0,2.7-1.746A5.8,5.8,0,0,0,5.858,2.083Z" transform="translate(11.267)"/>
    <path id="Shape-2" data-name="Shape" d="M8.7,23.4H8.656c-2.512-.022-4.322-2.3-5.619-4.283C-.288,14.042-.968,7.677,1.421,3.983A8.269,8.269,0,0,1,8.112,0a9.237,9.237,0,0,1,3.27.7L11.4.71a6.253,6.253,0,0,0,2.082.5A5.067,5.067,0,0,0,15.311.75l0,0A9.212,9.212,0,0,1,18.842,0a8.093,8.093,0,0,1,6.135,3.206.927.927,0,0,1-.284,1.4,5.065,5.065,0,0,0-2.683,4.9,5.253,5.253,0,0,0,3.379,4.6.945.945,0,0,1,.536.515.922.922,0,0,1-.01.739A21,21,0,0,1,24.025,18.9c-1.45,2.214-3.263,4.48-5.707,4.5a5.473,5.473,0,0,1-2.417-.611,4.892,4.892,0,0,0-2.235-.576l-.15,0a5.274,5.274,0,0,0-2.4.58L11.1,22.8l-.01,0A5.452,5.452,0,0,1,8.7,23.4ZM8.11,1.877A6.356,6.356,0,0,0,3.022,4.991c-1.681,2.6-1.687,8.073,1.613,13.11,1.038,1.587,2.434,3.41,4.038,3.424a4.219,4.219,0,0,0,1.641-.436,7.2,7.2,0,0,1,6.393,0,3.739,3.739,0,0,0,1.6.435c1.554-.014,3.021-1.954,4.126-3.642A17.329,17.329,0,0,0,23.8,15.435a7.134,7.134,0,0,1-3.686-5.8,6.856,6.856,0,0,1,2.674-6.029,5.9,5.9,0,0,0-3.945-1.735,7.372,7.372,0,0,0-2.833.618L16,2.5a6.811,6.811,0,0,1-2.515.585,7.952,7.952,0,0,1-2.74-.61l-.012,0-.021-.007A7.475,7.475,0,0,0,8.11,1.877Z" transform="translate(0 6.933)"/>
  </g>
</svg>
