<svg xmlns="http://www.w3.org/2000/svg" viewBox="7783.997 359 53.003 54.606">
  <defs>
    <style>
      .cls-1 {
        fill: #1e1a1c;
      }
    </style>
  </defs>
  <g id="Artwork4" transform="translate(7784 359)">
    <path id="Path_259" class="cls-1" d="M1.359.217A.808.808,0,0,0,.217,1.359L3.449,4.591A.808.808,0,0,0,4.592,3.449Z" transform="translate(24.303 14.242)"/>
    <path id="Path_260" class="cls-1" d="M1.364.226A.805.805,0,0,0,.226,1.365L6.666,7.8A.805.805,0,0,0,7.8,6.666Z" transform="translate(19.485 15.848)"/>
    <path id="Path_261" class="cls-1" d="M21.2,41.759A21.274,21.274,0,0,1,8.537,37.617,20.71,20.71,0,0,1,.257,24.11,20.506,20.506,0,0,1,3.944,8.757,21.171,21.171,0,0,1,11.652,2.24,21.678,21.678,0,0,1,21.234,0,21.346,21.346,0,0,1,33.168,3.63,20.745,20.745,0,0,1,42.02,16.782a20.49,20.49,0,0,1-3.025,15.491l4.123,4.057a.862.862,0,0,1-.012,1.215.89.89,0,0,1-1.234.01L37.958,33.7l0,0a20.94,20.94,0,0,1-7.571,6A21.7,21.7,0,0,1,21.2,41.758h0ZM21.276,1.9a19.467,19.467,0,0,0-13.7,5.583,18.985,18.985,0,0,0-4.151,6.059,18.845,18.845,0,0,0,0,14.839,18.983,18.983,0,0,0,4.151,6.059,19.325,19.325,0,0,0,6.157,4.085,19.557,19.557,0,0,0,21.23-4.092,19.007,19.007,0,0,0,4.152-6.056,18.8,18.8,0,0,0,.006-14.835,18.986,18.986,0,0,0-4.151-6.059A19.467,19.467,0,0,0,21.276,1.9Z"/>
    <path id="Path_262" class="cls-1" d="M16.591,33.182A16.591,16.591,0,0,1,4.859,4.859,16.591,16.591,0,1,1,28.322,28.322,16.483,16.483,0,0,1,16.591,33.182Zm0-31.523A14.932,14.932,0,0,0,6.032,27.149,14.932,14.932,0,0,0,27.149,6.032,14.834,14.834,0,0,0,16.591,1.659Z" transform="translate(4.818 4.818)"/>
    <path id="Path_263" class="cls-1" d="M16.515,6.716,10.495.27A.829.829,0,0,0,9.888,0h0a.833.833,0,0,0-.608.271L6.857,2.879a.968.968,0,0,0,.024,1.278.819.819,0,0,0,1.193.019L9.89,2.222,15.3,8.016A2.892,2.892,0,0,1,16,10.7a2.675,2.675,0,0,1-1.84,1.971,2.466,2.466,0,0,1-2.506-.752L1.477,1.018A.822.822,0,0,0,.641.768a.892.892,0,0,0-.613.657.964.964,0,0,0,.235.895l10.181,10.9a4.094,4.094,0,0,0,5.965-.113,4.838,4.838,0,0,0,.105-6.389Z" transform="translate(35.333 40.152)"/>
  </g>
</svg>
