<svg xmlns="http://www.w3.org/2000/svg" viewBox="7394 358 53 53">
  <defs>
    <style>
      .cls-1 {
        fill: #1f1b1d;
      }
    </style>
  </defs>
  <g id="Artwork3" transform="translate(7394 358)">
    <path id="Path_252" class="cls-1" d="M0,.9V13.551a.858.858,0,0,0,.8.9.858.858,0,0,0,.8-.9V.9A.858.858,0,0,0,.8,0,.858.858,0,0,0,0,.9Z" transform="translate(20.879 33.727)"/>
    <path id="Path_253" class="cls-1" d="M.8,1.606H4.015A.8.8,0,1,0,4.015,0H.8a.8.8,0,0,0,0,1.606Z" transform="translate(0 41.758)"/>
    <path id="Path_254" class="cls-1" d="M27.659,32.121H.883a.894.894,0,0,1-.882-.9q0-.043,0-.086a4.43,4.43,0,0,1,1.31-3.092L28.051,1.316A4.49,4.49,0,0,1,31.216,0h.014a.893.893,0,0,1,.892.892V27.66A4.474,4.474,0,0,1,27.659,32.121ZM30.336,1.932a2.713,2.713,0,0,0-1.027.645L2.571,29.307a2.7,2.7,0,0,0-.646,1.03H27.659a2.684,2.684,0,0,0,2.677-2.677V1.932Z"/>
    <path id="Path_255" class="cls-1" d="M50.082,17.041,33.307.272a.891.891,0,1,0-1.26,1.261L48.821,18.3a2.71,2.71,0,0,1,0,3.826L22.117,48.82a2.71,2.71,0,0,1-3.825,0L1.51,32.041A.891.891,0,0,0,.25,33.3L17.033,50.081a4.491,4.491,0,0,0,6.346,0l26.7-26.7a4.492,4.492,0,0,0,0-6.346Z" transform="translate(1.606 1.606)"/>
    <path id="Path_256" class="cls-1" d="M13.551,1.606a.858.858,0,0,0,.9-.8.858.858,0,0,0-.9-.8H.9A.858.858,0,0,0,0,.8a.858.858,0,0,0,.9.8Z" transform="translate(33.727 20.879)"/>
    <path id="Path_257" class="cls-1" d="M13.551,0H.9A.858.858,0,0,0,0,.8a.858.858,0,0,0,.9.8H13.551a.858.858,0,0,0,.9-.8A.858.858,0,0,0,13.551,0Z" transform="translate(0 51.394)"/>
    <path id="Path_258" class="cls-1" d="M.964,1.606H8.673A.894.894,0,0,0,9.636.8.894.894,0,0,0,8.673,0H.964A.894.894,0,0,0,0,.8.894.894,0,0,0,.964,1.606Z" transform="translate(0 46.576)"/>
  </g>
</svg>
