<svg xmlns="http://www.w3.org/2000/svg" viewBox="7283 158 27 30">
  <g id="play-store" transform="translate(7283 158)">
    <path id="Shape" d="M3.289,30A3.293,3.293,0,0,1,0,26.7V3.3A3.288,3.288,0,0,1,4.922.435l20.421,11.7a3.3,3.3,0,0,1,0,5.727L4.922,29.565A3.292,3.292,0,0,1,3.289,30ZM3.159,2.009A1.289,1.289,0,0,0,2,3.3V26.7a1.3,1.3,0,0,0,.644,1.122,1.269,1.269,0,0,0,.521.164L12.462,15,3.159,2.009ZM13.69,16.715,6.983,26.08l9.511-5.45-2.8-3.915Zm4.545-6.347L14.918,15l3.316,4.631,6.118-3.506a1.3,1.3,0,0,0,0-2.253l-6.118-3.505ZM6.985,3.92l6.705,9.365,2.8-3.915Z"/>
  </g>
</svg>
